<svg width="30" height="43" viewBox="0 0 30 43" fill="none" xmlns="http://www.w3.org/2000/svg">
<path fill-rule="evenodd" clip-rule="evenodd" d="M3.79766e-05 23.4316V18.8965H5.22475H14.9158C16.4888 18.8965 17.9073 18.5885 19.1714 17.9727C20.4495 17.3568 21.4607 16.4889 22.2051 15.3691C22.9635 14.2493 23.3427 12.9336 23.3427 11.4219C23.3427 9.53223 22.6826 7.92953 21.3624 6.61377C20.0421 5.28402 17.9495 4.61914 15.0843 4.61914H5.22475H3.79766e-05V0H15.0843C18.0899 0 20.5688 0.517904 22.5211 1.55371C24.4733 2.57552 25.927 3.95426 26.882 5.68994C27.8371 7.41162 28.3146 9.32226 28.3146 11.4219C28.3146 13.2695 27.9846 14.7952 27.3244 15.999C26.6784 17.2028 25.8216 18.1546 24.7542 18.8545C23.7009 19.5544 22.5562 20.0723 21.3202 20.4082V20.8281C22.6405 20.9121 23.9677 21.374 25.302 22.2139C26.6362 23.0537 27.7528 24.2575 28.6517 25.8252C29.5506 27.3929 30 29.3105 30 31.5781C30 33.7337 29.5084 35.6724 28.5253 37.394C27.5421 39.1157 25.9902 40.4805 23.8694 41.4883C21.7486 42.4961 18.9888 43 15.5899 43H3.79766e-05V38.3809H5.22475H15.5899C19.0028 38.3809 21.4256 37.723 22.8582 36.4072C24.3048 35.0775 25.0281 33.4678 25.0281 31.5781C25.0281 30.1224 24.6559 28.7786 23.9115 27.5469C23.1671 26.3011 22.1068 25.3073 20.7303 24.5654C19.3539 23.8096 17.7247 23.4316 15.8427 23.4316H5.22475H3.79766e-05ZM3.79766e-05 27.9108V33.7617H5.22475V27.9108H3.79766e-05ZM5.22475 8.81836L5.22471 15.0892H0L3.79766e-05 8.81836H5.22475Z" fill="url(#paint0_linear_4_28)"/>
<defs>
<linearGradient id="paint0_linear_4_28" x1="15" y1="-6.65354e-07" x2="-17" y2="53.5" gradientUnits="userSpaceOnUse">
<stop stop-color="#00D1FF"/>
<stop offset="1" stop-color="white"/>
</linearGradient>
</defs>
</svg>
